<svg width="17" height="17" viewBox="0 0 17 17" fill="none" xmlns="http://www.w3.org/2000/svg">
<g id="tabler-icon-mail">
<path id="Vector" d="M2.5 5.16659C2.5 4.81296 2.64048 4.47382 2.89052 4.22378C3.14057 3.97373 3.47971 3.83325 3.83333 3.83325H13.1667C13.5203 3.83325 13.8594 3.97373 14.1095 4.22378C14.3595 4.47382 14.5 4.81296 14.5 5.16659M2.5 5.16659V11.8333C2.5 12.1869 2.64048 12.526 2.89052 12.7761C3.14057 13.0261 3.47971 13.1666 3.83333 13.1666H13.1667C13.5203 13.1666 13.8594 13.0261 14.1095 12.7761C14.3595 12.526 14.5 12.1869 14.5 11.8333V5.16659M2.5 5.16659L8.5 9.16658L14.5 5.16659" stroke="#A6A6A6" stroke-width="1.33333" stroke-linecap="round" stroke-linejoin="round"/>
</g>
</svg>
